# xmcd
#
# Track frame offsets:
#	150
#	16171
#	31555
#	47260
#	58791
#	77033
#	87367
#	100647
#	114397
#	133130
#
# Disc length: 2144 seconds
#
# Revision: 1
# Processed by: cddbd v1.5.2PL0 Copyright (c) Steve Scherf et al.
# Submitted via: audiograbber 1.83.01
#
DISCID=6b085e0a
DTITLE=Bill Passalacqua - Long Way Home Bill Passalacqua
DYEAR=1900
DGENRE=
TTITLE0=You´re A Freight Train
TTITLE1=Beatiful
TTITLE2=Long Way Home
TTITLE3=Clock And Speedometer
TTITLE4=Spillway 
TTITLE5=House On A Hill
TTITLE6=Got No Money
TTITLE7=Photograph
TTITLE8=Crossroads
TTITLE9=Chin Up
EXTD=
EXTT0=
EXTT1=
EXTT2=
EXTT3=
EXTT4=
EXTT5=
EXTT6=
EXTT7=
EXTT8=
EXTT9=
PLAYORDER=
